PathFileType	4	(X/Y/Z)	36_2_rein_96_p0_0-345.trc
DataRate	CameraRate	NumFrames	NumMarkers	Units	OrigDataRate	OrigDataStartFrame	OrigNumFrames
42.0	42.0	4	27	m	42.0	0	346
Frame#	Time	RHip			RKnee			RAnkle			RBigToe			RSmallToe			RHeel			LHip			LKnee			LAnkle			LBigToe			LSmallToe			LHeel			Neck			Head			Nose			RShoulder			RElbow			RWrist			RThumb			RIndex			RPinky			LShoulder			LElbow			LWrist			LThumb			LIndex			LPinky			
		X1	Y1	Z1	X2	Y2	Z2	X3	Y3	Z3	X4	Y4	Z4	X5	Y5	Z5	X6	Y6	Z6	X7	Y7	Z7	X8	Y8	Z8	X9	Y9	Z9	X10	Y10	Z10	X11	Y11	Z11	X12	Y12	Z12	X13	Y13	Z13	X14	Y14	Z14	X15	Y15	Z15	X16	Y16	Z16	X17	Y17	Z17	X18	Y18	Z18	X19	Y19	Z19	X20	Y20	Z20	X21	Y21	Z21	X22	Y22	Z22	X23	Y23	Z23	X24	Y24	Z24	X25	Y25	Z25	X26	Y26	Z26	X27	Y27	Z27	
0	0.0	0.3177151214308031	0.5830300678081672	-0.10090910901351949	0.3625609761662004	0.6687283963606889	0.34108529967595835	0.39388170949812645	0.7086072305695046	0.7159325288758817	0.35502313556114107	0.5380520701437125	0.7561243494708026	0.4185075003276962	0.5304235575268214	0.7421374421292345	0.36733058733607893	0.7772464927270807	0.7523619330341768	0.1326997955624602	0.5477677893397597	-0.0842674734473	0.14137889270450446	0.6763965001449465	0.3526470371818851	0.1788468553570174	0.7168620375952578	0.7471486005558192	0.18547583821392957	0.492117133171124	0.7398840098011477	0.13750953564411572	0.5547432638283754	0.7613177881634093	0.1981910724358792	0.7586966403717141	0.7867019466648907	0.19461468416230393	0.5357268909192501	-0.5843265022045532	0.20373044545302973	0.46946340949834175	-0.8208480915574937	0.19796658418208518	0.43368181878561707	-0.6869075729491401	0.34182070992477587	0.5490062550334028	-0.5071733478751516	0.35419680734478654	0.48197647828885265	-0.2750433721105946	0.27368100359457204	0.29538744512166343	-0.10359998124591445	0.21976190428079537	0.251725096599333	-0.022822833666259233	0.23048758952239976	0.27685056967308963	-0.007937141808948616	0.2578783179838859	0.3019710883946695	0.0020603529201587757	0.044626014809758245	0.5654811361910312	-0.5082543385640061	0.06553880983445418	0.40983108272560964	-0.27697360129774895	0.1698653036173616	0.29262247022439647	-0.09566865280960901	0.258223477471343	0.2897492650409638	-0.030914659558	0.2623640888062718	0.2894385971520053	-0.02594166325481512	0.20920963309296442	0.23974683851622178	-0.017402565982676144
1	0.023809523809523808	0.31757517625598125	0.5837286683030064	-0.09686513534480627	0.3630695037548905	0.6679444717052219	0.34487222174862114	0.39257598938386024	0.7072086294769157	0.7107629812453109	0.3533220358191703	0.5362363923508799	0.7507390940721351	0.4171652350752643	0.5301285913423095	0.7380704396720218	0.37234429088293336	0.8131407078223	0.7713295880718001	0.13273837932264226	0.548066714923303	-0.08427502374319137	0.1419103922515967	0.675101427350167	0.356750849221052	0.17922603373710233	0.7133608605105981	0.7406664111091769	0.1878161811982654	0.5090857709709367	0.7450435888739432	0.13614582918422138	0.5602014486188466	0.7620105590140116	0.19310992863185358	0.7736742219544629	0.7945563871104006	0.19471028414360134	0.5360634551769593	-0.5843657277038543	0.20604161304996613	0.4801303792901263	-0.8247295684230056	0.1938586866178888	0.4462685086327344	-0.6864692665148163	0.34179319562846766	0.5492192930586605	-0.5071636708267153	0.3584197946615497	0.48302097331948907	-0.2752888727046809	0.2733598261118844	0.2960761802112902	-0.10063239645017819	0.21959832974663465	0.2513426857626571	-0.02286915538659373	0.22311384298837864	0.26436090371997895	-0.01000542763293546	0.25445418798825586	0.29089034596285057	0.00024096290957884543	0.04844482882904208	0.5676927077745895	-0.5086378001595081	0.0652294450708892	0.42339324135430967	-0.2789769089442548	0.16981895265357377	0.2927733208512542	-0.09573919172578532	0.25812310591427334	0.28996695485922785	-0.031221208683852756	0.2588842655230233	0.2792686560723341	-0.028140696290306504	0.20917125602936446	0.24027560222401984	-0.017314260705952864
2	0.047619047619047616	0.317491255042003	0.5837785174997767	-0.09654876006602803	0.36300449255264944	0.6681061714929522	0.3448841056850328	0.3925443020416572	0.7072600659037928	0.7106030425452553	0.3494326626739485	0.5236456479987389	0.7449652292370029	0.4172405542281731	0.5298431812558771	0.7377186065402042	0.3677028618600178	0.7994930659940974	0.765700290274959	0.13561500691225353	0.5609850584769251	-0.08199032239071674	0.14024374894500533	0.6732779289348382	0.3557863423836982	0.17861336502723094	0.7140523098986002	0.7455606469671028	0.18782170664978493	0.5089535268050789	0.7449616046027945	0.13602835949563497	0.5605420160088023	0.7621865049484591	0.19312047086037912	0.7753546159849625	0.7956297816336078	0.19480529355956588	0.5362245168485393	-0.5843763675899762	0.2063222754367687	0.48077046456699424	-0.8248729014138217	0.19804400959283402	0.43400862742993074	-0.6868206846050993	0.34562833073529714	0.561641131375174	-0.5068104911397247	0.3585499592437334	0.4833025524787874	-0.27519713595092893	0.27342116046590076	0.29640445090598727	-0.10052705250965667	0.21972222413115677	0.25144514289548114	-0.022735449698768614	0.22336444540526532	0.2642785389093751	-0.00964794860781943	0.250740877670229	0.2900723908677378	0.0007386868202705899	0.04406103811985368	0.5641257210059878	-0.5122345283874636	0.06975470842916626	0.411415878984067	-0.28086900818165633	0.1699081586266781	0.29270389407598024	-0.09578392183936693	0.25826478674578485	0.2898639638270485	-0.031041696834448906	0.2590755663747954	0.2793046405599066	-0.028167120901779436	0.20882790177396574	0.24067710889326127	-0.02058909177467332
3	0.07142857142857142	0.31747022767406946	0.5837751008306172	-0.09648116488159	0.3590228490200829	0.6664755824237059	0.3447592227700214	0.3925591373406611	0.7073308055611153	0.7106345778372449	0.35340181294278045	0.5363500684630244	0.7500806476088951	0.41755670964062785	0.5309219599705871	0.7377326352997177	0.37200936012434604	0.8149130076375117	0.7677290769666613	0.13086837317566655	0.5751248926150143	-0.07863174932429809	0.14024222341673695	0.6732316965924078	0.35563375848183876	0.17859319930858022	0.7140704937629796	0.7454624723251768	0.1879474816316143	0.5082390898116805	0.7444984334137986	0.14014992378785987	0.546661152627659	0.7575775000556474	0.19261060857660814	0.7766355645107	0.8007843604849888	0.19478504879585443	0.5361991452605712	-0.5843406665641722	0.20679791601830647	0.481723177257507	-0.8218059753115684	0.1985459129659006	0.43393175942737217	-0.6835093668665616	0.34563017362861237	0.5617101766266027	-0.5068078974643513	0.35437648173996733	0.48265535629216294	-0.2711452160828244	0.27345572842203275	0.2962286783462745	-0.10059867620484034	0.21975865501549335	0.25147133818274414	-0.02273758870226322	0.22740700522726298	0.26532507274696115	-0.009804589806063262	0.25419308297515947	0.3009918495977683	0.002999219507657913	0.04408392464841084	0.5642445348551475	-0.5122051232524618	0.06526029127962105	0.4235996971501176	-0.2791412706254635	0.1701309574498691	0.29249173256240324	-0.0990405545003268	0.25818667042607535	0.2900656095209845	-0.031100508103394434	0.25886431666760956	0.27931542879163285	-0.02824298317997268	0.20907968834128138	0.24002144844619297	-0.023874391839441223
